<svg xmlns="http://www.w3.org/2000/svg" viewBox="0 0 64 64">
  <g id="apple">
    <path d="M28.3944,17.449a8.23447,8.23447,0,0,0,7.2112,0C44.41692,13.16356,56,17.84044,56,33.47671,56,50,46,58,38,58a10.46176,10.46176,0,0,1-3.40857-.544,7.97379,7.97379,0,0,0-5.18286,0A10.46176,10.46176,0,0,1,26,58C18,58,8,50,8,33.47671,8,17.84044,19.58308,13.16356,28.3944,17.449Z" style="fill: none;stroke: #fff;stroke-linejoin: round;stroke-width: 4px"/>
    <path d="M24.89551,24.64355H24.895a5.77571,5.77571,0,0,0-5.59326.0254C17.20361,25.98145,16,29.19141,16,33.47656" style="fill: none;stroke: #fff;stroke-linecap: round;stroke-miterlimit: 10;stroke-width: 4px"/>
    <path d="M32,18c0-6,2-10,8-10" style="fill: none;stroke: #fff;stroke-linecap: round;stroke-linejoin: round;stroke-width: 4px"/>
  </g>
</svg>
