<svg xmlns="http://www.w3.org/2000/svg" width="193.559" height="156" viewBox="0 0 193.559 156"><g transform="translate(-0.003 -0.03)"><g transform="translate(0.002 0.03)"><path d="M114.966,71.871a33.085,33.085,0,0,0,28.67,28.148l1.814,6.021,2.773-5.781a33.069,33.069,0,0,0,32.2-28.4h8.627c-2.346,19.574-18.4,36.974-41.347,36.974S108.7,91.434,106.36,71.861ZM147.7,34.152a33.07,33.07,0,0,0-30.755,20.914h-9.122A41.5,41.5,0,0,1,115.435,40.9L111.2,27.4c-11.306-36.489,84.31-36.489,73,0L179.968,40.9a41.5,41.5,0,0,1,7.611,14.163h-9.117A33.074,33.074,0,0,0,147.7,34.152Zm0-8.575a41.441,41.441,0,0,1,22.978,6.917l2.606-8.45c3.555-11.468-25.834-15.179-41.378-10.368-6.667,2.085-11.28,5.593-9.805,10.368l2.606,8.45A41.43,41.43,0,0,1,147.7,25.557Z" transform="translate(-50.919 -0.03)" fill="#fff" fill-rule="evenodd"/><path d="M26.023,73.939,24.579,78.63h7.928a40,40,0,0,1,1.35-4.691Zm-11.53,5.093-1.1,3.545h6.031a30.525,30.525,0,0,1,1.043-3.571Zm-1.34,4.618c-.083.386-.162.766-.229,1.152h6.062c.068-.391.136-.771.214-1.152ZM6,84,5.24,86.46H9.41A21.253,21.253,0,0,1,10.119,84Zm-.928,3.164c-.057.261-.109.521-.162.792h4.17c.047-.271.1-.521.151-.792Zm19.188-7.147c-.109.521-.214,1.006-.3,1.512h7.975c.089-.521.182-1.043.281-1.512Zm143.281-6.078,1.449,4.691h-7.918a40.035,40.035,0,0,0-1.345-4.691Zm11.536,5.093,1.1,3.571h-6.031a30.525,30.525,0,0,0-1.043-3.571Zm1.34,4.618c.083.386.156.766.229,1.152h-6.062c-.068-.391-.136-.771-.214-1.152Zm7.152.349.761,2.46h-4.17a20.3,20.3,0,0,0-.7-2.46Zm.928,3.19c.057.261.109.521.156.792h-4.17c-.047-.271-.094-.521-.146-.792Zm-19.188-7.173c.109.521.209,1.006.3,1.512h-7.981c-.089-.521-.182-1.043-.281-1.512Zm-16.331,4.749c-1.157,0-2.184,1.684-2.815,4.264h-3.3c.725-11.609,3.524-20.251,6.86-20.251,3.894,0,7.053,11.76,7.053,26.267s-3.159,26.272-7.053,26.272c-3.1,0-5.734-7.48-6.677-17.869h-2.716c1.22,11.937,4.962,20.632,9.383,20.632h8.966c2.434,0,4.691-2.606,6.38-6.975h6.776c3.128,0,5.8-5.677,6.907-13.73a41.413,41.413,0,0,1-.417,6.907h3.023c2.21,0,4.092-4.113,4.827-9.9h1.506c2.513,0,2.513-10.691,0-10.691H190.17c-.735-5.776-2.606-9.9-4.827-9.9H181.22c-1.355-4.207-3.268-6.829-5.39-6.829h-5.51A50.344,50.344,0,0,1,171.842,84.6c-1.387-10.848-4.983-18.6-9.159-18.6h-8.966c-4.723,0-8.663,9.868-9.6,23.014H110.625c.568,4.17-2.695,8.1-3.748,12.031h43.265c1.95,7.991,6.292,4.029,6.292-6.015C156.455,89.374,154.9,84.766,152.978,84.766ZM37.95,88.362c1.444-5,4.128-4.775,5.458.672h3.3c-.73-11.609-3.524-20.251-6.86-20.251-3.894,0-7.053,11.76-7.053,26.267s3.159,26.272,7.053,26.272c3.128,0,5.734-7.48,6.677-17.869h2.716c-1.22,11.937-4.962,20.632-9.383,20.632H30.886c-2.44,0-4.691-2.606-6.38-6.975H17.724c-3.128,0-5.8-5.677-6.907-13.73a41.415,41.415,0,0,0,.417,6.907H8.211c-2.21,0-4.092-4.113-4.827-9.9h-1.5c-2.507,0-2.507-10.691,0-10.691H3.395c.735-5.776,2.606-9.9,4.827-9.9H12.34c1.361-4.175,3.3-6.8,5.385-6.8H23.25a50.6,50.6,0,0,0-1.527,11.645C23.14,73.751,26.706,66,30.886,66h8.966c4.691,0,8.663,9.868,9.6,23.014H82.19c-1.678,5.15-1.944,6.292-2.023,12.031H43.407c-1.282,5.249-3.816,5.651-5.291,1.209a22.013,22.013,0,0,1-1-7.225A23.723,23.723,0,0,1,37.95,88.362Z" transform="translate(-0.002 -31.612)" fill="#fff" fill-rule="evenodd"/><path d="M174.83,109.866c.261.881.959,1.533,2.481,1.8a1.993,1.993,0,0,0,2.45-1.215c.365-.86.318-2.174.745-4.087a15.212,15.212,0,0,0,.422-3.388,5.333,5.333,0,0,0-.4-1.616c-.235-.172-.464-.354-.693-.521-2-1.517-2.867-1.564-4.931-.48a7.178,7.178,0,0,1,.641,3.31c0,1.564.448,1.35,1.089,2.523-.391-.281-.74-.521-1.157-.777a39.463,39.463,0,0,1-.646,4.457m-5.885,2.476c.521.678,1.715.813,2.825.787a1.873,1.873,0,0,0,2.049-1.564c.521-2.4,2.408-10.655-.485-11.786-1.991-.782-3.128-1.178-5.213,0a13.312,13.312,0,0,1,.719,3.4,4.2,4.2,0,0,0,1.7,3.477c-.579-.12-1.152-.047-1.527-.573.036,2.523-.063,4.1-.068,6.245Zm-8.564-10.764c.229-1.533,0-1.809-1.043-2.4-1.444-.85-3.649-.365-4.009,1.433a2.521,2.521,0,0,0,.615,2.492c1.434-.579,2.976-1.1,4.436-1.533Zm13.068,35.4,2.314,13.553-2.747.13Zm-9.67-30.447a5.416,5.416,0,0,1,1.793.985c-1.162-.141-2.085-.521-3.023.063.2,1.043.459,2.262.7,3.435.459,2.215,1.308,2.789,2.742,2.685,2.768-.214,2.262-.589,2.325-2.971.094-3.492.162-8.34-.683-10.462a2.947,2.947,0,0,0-3.2-2.007c-2.575.1-2.763.334-2.82,2.966.672-.182,2.648-.949,2.883.4C164.822,103.532,164.822,105.216,163.779,106.545Zm21.68,32.512v.031l-.771-.735h0c-2.794-3.065-.829-6.4-1.527-8.789a34.835,34.835,0,0,0-6.094-.521c2.976-.844,6.375-.912,7.23-4.082,1.074-3.967.454-4.655-.4-11.233-.745.4-1.439.725-2.085,1,.146.141.292.281.433.427a17.125,17.125,0,0,0-3,.318l1.3,1.371c-4.2-1.392-3.779-.766-8.038.3a8.789,8.789,0,0,1,3.967,3.534c-4.379-3.44-5.369-3.883-12.865-3.169-2.21-1.564-1.824-1.725-3.649-2.278-1.491.412-3.362.7-4.853,1.105,3.951-1.809,5.088-3.1,3.79-7.866,3.612-1.366,5.406-1.939,5.114-5.687-.083-1.043,0-1.491-1.486-1.11-1.152.292-2.3.61-3.435.985.339,1.611.871,1.658,2.158,2.648-1.043-.422-2.221-.558-2.57-1.652-.146-.438-.292-.761-.725-.6-5.213,1.923-5.1,1.72-5.786,8.267-1.465,13.991,4.947,11.989,16.681,18.323l-2.872,3.388c.193,4.624.12,12.933.12,19.224l.042,2.4-5.265-.771.089.354-.422-.063c0-7.376,1.142-15.226.907-22.368-2.481-1.22-9.279-5.02-10.53-7.3a8.789,8.789,0,0,1-1.533-4.17c0-2.945-.073-7.756.48-10.577s2-6.13,2.857-8.862c.9-3.248,5.307-4.467,7.5-3.185.912.521,1.043-1,4.17-1.126a4.728,4.728,0,0,1,3.706,1.329c2.168-.98,3.68-.579,5.875.281a3.649,3.649,0,0,1,.73.391c2.424-1.183,4.019-.74,6.161.891,1.413,1.074,2.288,1.934,2.429,3.816.375,5.015,2.909,8.491,3.5,14.715.151,1.564.521,4.071.521,5.541a18.53,18.53,0,0,1-1.215,5.557l-.323,10.243Z" transform="translate(-71.516 -46.25)" fill="#fff" fill-rule="evenodd"/><path d="M97.629,87.423c-.063-.688-.214-.949-1.444-.631-1.152.292-2.3.61-3.435.985.339,1.611.871,1.658,2.158,2.648-1.48-2.606.459-2.554,2.721-3m-3.472-1.465c.1-2.424-4.556-2.976-5.114-.245a2.226,2.226,0,0,0,.172,1.788C89.32,84.28,92.968,84.546,94.157,85.958Zm7.162-.573a2.947,2.947,0,0,0-3.2-2.007c-2.575.1-2.763.328-2.82,2.966l.146-.042c.167-1.48.719-1.647,2.867-1.736a3.092,3.092,0,0,1,3.383,2.252,7.659,7.659,0,0,0-.381-1.433Zm7.3,3.894c.042-2.085-.313-3.91-1.564-4.4-1.991-.782-3.128-1.178-5.213,0a6.37,6.37,0,0,1,.391,1.293c1.9-.949,3-.553,4.884.182.917.37,1.35,1.5,1.486,2.924Zm4.936-3.341c-2-1.522-2.867-1.564-4.931-.474a4.389,4.389,0,0,1,.407,1.089c1.694-.8,2.58-.631,4.389.745.7.521.99.662,1.1,2.148v.271c.146-.86.2-2.606-.281-3.247-.24-.172-.469-.354-.7-.532ZM97.775,103.8c6.6,0,7.819.787,12.51,4.233-1.976-1.084-5.176-2.8-8.168-2.638.057.381,1.324,1.4,1.376,1.783-4.17-2.653-4.071-1.6-6.255-2.413a36.835,36.835,0,0,0-5.906-2.085C94.553,102.342,95.236,101.966,97.775,103.8Zm2,28.341,1.324-10.889c.5,1.814,1.6,6.4,1.606,6.333.37-2.236-.568-9.435-.735-12.187l-2.325,2.742c.141,3.435.141,8.872.13,14.017Zm18.213-22.071c.954-3.534.568-4.467-.125-9.273H115.9c1.407,5.072,1.8,10.06-3.274,12.9,2.4-.511,4.66-1.095,5.353-3.607Zm9.122-33.059a33.074,33.074,0,0,0-50.214,0,44.708,44.708,0,0,1,50.214.016Zm-88.094,4.17c2.721-16.769,9.237-16.946,12.02-.281-3.409-10.024-8.643-9.815-12,.318Zm125.938,0c-2.726-16.769-9.237-16.946-12.026-.281,3.461-10.024,8.674-9.815,12.047.318ZM19.292,80.073l.417-1.3h5.953c-.172.469-.328.964-.485,1.486Zm11.343-4.457.6-1.934H39.1c-.214.584-.417,1.209-.61,1.861ZM10.9,84.739l.318-1.043h4.108c-.115.313-.224.641-.323.99C13.887,84.728,11.995,84.754,10.9,84.739Zm173.8-4.691-.407-1.272h-5.953c.172.469.328.964.485,1.486ZM173.358,75.59l-.6-1.934H164.94c.214.584.417,1.209.61,1.861ZM193.1,84.712l-.318-1.043H188.7c.115.313.224.641.323.99,1.089.068,2.971.094,4.076.078Zm-34.268,32.319c-2.346,0-4.373-5.15-5.307-12.583,2.513,13.324,8.168,13.2,10.639-.2-.923,7.548-2.966,12.792-5.333,12.792Zm-113.673,0c2.351,0,4.379-5.15,5.312-12.583-2.518,13.324-8.173,13.2-10.639-.2.923,7.548,2.961,12.792,5.327,12.792ZM92.468,89.075c-.235-.417-.245-1.131-.855-.907-4.983,1.84-5.1,1.736-5.734,7.491,1.7-3.654,1.95-4.895,6.589-6.578Z" transform="translate(-5.219 -31.355)" fill="#fff" fill-rule="evenodd"/><path d="M26.25,272.268H18.9V243.63H41.606v5.734H26.25v6.75H38.333v5.734H26.25Z" transform="translate(-9.049 -116.649)" fill="#fff"/><path d="M80.326,272.24H65.6v-5.734h3.68V249.3H65.6V243.57H80.326V249.3h-3.68v17.2h3.68Z" transform="translate(-31.406 -116.62)" fill="#fff"/><path d="M112.946,272.264h-7.36v-22.91H97V243.62h24.541v5.734h-8.6Z" transform="translate(-46.438 -116.644)" fill="#fff"/><path d="M174.523,272.268h-7.772l-9.821-17.2v17.2h-7.36V243.63h7.772l9.821,17.2v-17.2h7.36Z" transform="translate(-71.605 -116.649)" fill="#fff"/><path d="M229.561,272.268h-22.7V243.63h22.7v5.734h-15.33v5.52H226.3v5.734H214.231v5.932h15.336Z" transform="translate(-99.032 -116.649)" fill="#fff"/><path d="M254.65,266.308q11.212.61,15.179.61a1.9,1.9,0,0,0,2.043-2.043v-3.68h-9.4q-4.29,0-6.255-1.944t-1.944-6.255V251.77q0-4.3,1.944-6.255t6.255-1.944H276.83V249.3H264.122a2.17,2.17,0,0,0-2.455,2.455v.818a2.17,2.17,0,0,0,2.455,2.455h7.366q4.009,0,5.89,1.877t1.882,5.9v2.043q0,4.009-1.882,5.89t-5.89,1.882c-1.392,0-2.862-.026-4.42-.083l-3.764-.162q-4.17-.2-8.632-.573Z" transform="translate(-121.728 -116.62)" fill="#fff"/><path d="M307.271,266.308q11.207.61,15.174.61a1.908,1.908,0,0,0,2.049-2.043v-3.68h-9.414q-4.3,0-6.255-1.944t-1.944-6.255V251.77q0-4.3,1.944-6.255t6.255-1.944H329.44V249.3H316.716a2.166,2.166,0,0,0-2.45,2.455v.818a2.166,2.166,0,0,0,2.45,2.455h7.366q4.009,0,5.89,1.877t1.882,5.9v2.043q0,4.009-1.882,5.89t-5.89,1.882c-1.392,0-2.862-.026-4.42-.083l-3.758-.162q-4.17-.2-8.632-.573Z" transform="translate(-146.914 -116.62)" fill="#fff"/></g></g></svg>